<?xml version="1.0" encoding="utf-8"?>
<!-- Generator: Adobe Illustrator 16.0.2, SVG Export Plug-In . SVG Version: 6.00 Build 0)  -->
<!DOCTYPE svg PUBLIC "-//W3C//DTD SVG 1.1//EN" "http://www.w3.org/Graphics/SVG/1.1/DTD/svg11.dtd">
<svg version="1.1" id="Layer_1" xmlns="http://www.w3.org/2000/svg" xmlns:xlink="http://www.w3.org/1999/xlink" x="0px" y="0px"
	 width="390px" height="21px" viewBox="0 0 390 21" enable-background="new 0 0 390 21" xml:space="preserve">
<path fill="#C6C6C6" d="M5.471,12.695c-0.117,0.656-0.139,1.338-0.048,2.029c0.499,3.777,4.112,6.416,8.07,5.895
	c2.162-0.285,3.975-1.459,5.098-3.078c1.272,0.727,2.811,1.063,4.412,0.852c3.723-0.492,6.366-3.74,5.902-7.254
	c-0.277-2.096-1.599-3.807-3.407-4.748c0.634-0.771,0.963-1.777,0.824-2.828c-0.271-2.053-2.204-3.491-4.318-3.212
	c-0.872,0.116-1.627,0.515-2.208,1.075c-1.224-0.605-2.667-0.874-4.168-0.676C13.233,1.067,11.283,2.48,10.3,4.352
	C9.293,3.594,7.988,3.215,6.624,3.396C3.905,3.754,1.985,6.193,2.335,8.842C2.575,10.662,3.833,12.086,5.471,12.695z"/>
<path fill="#C6C6C6" d="M28.938,10.342c-0.268,0.616-0.447,1.281-0.52,1.98c-0.39,3.822,2.542,7.256,6.546,7.664
	c2.188,0.225,4.24-0.504,5.719-1.832c1.08,1.01,2.51,1.697,4.133,1.863c3.768,0.385,7.117-2.186,7.482-5.744
	c0.217-2.119-0.682-4.107-2.238-5.452c0.803-0.609,1.361-1.52,1.469-2.583c0.213-2.078-1.35-3.939-3.49-4.158
	c-0.883-0.089-1.717,0.125-2.418,0.54c-1.059-0.879-2.412-1.479-3.932-1.635c-2.424-0.247-4.667,0.686-6.069,2.293
	c-0.811-0.978-2.003-1.654-3.385-1.795c-2.75-0.281-5.203,1.664-5.477,4.346C26.57,7.671,27.472,9.362,28.938,10.342z"/>
<path fill="#C6C6C6" d="M51.984,12.719c-0.119,0.662-0.139,1.35-0.049,2.049c0.504,3.814,4.154,6.48,8.15,5.951
	c2.186-0.287,4.016-1.473,5.15-3.107c1.283,0.734,2.838,1.072,4.455,0.859c3.76-0.496,6.43-3.775,5.961-7.326
	C75.373,9.029,74.037,7.3,72.211,6.35c0.641-0.779,0.975-1.795,0.834-2.856c-0.273-2.073-2.227-3.525-4.363-3.243
	c-0.879,0.116-1.643,0.52-2.229,1.085c-1.236-0.611-2.693-0.882-4.211-0.683c-2.418,0.32-4.387,1.748-5.381,3.638
	c-1.016-0.765-2.334-1.147-3.713-0.965c-2.746,0.361-4.686,2.824-4.332,5.501C49.061,10.663,50.328,12.102,51.984,12.719z"/>
<path fill="#C6C6C6" d="M90.285,9.863c-0.093,0.523-0.11,1.066-0.038,1.617c0.398,3.01,3.277,5.113,6.43,4.697
	c1.723-0.229,3.167-1.162,4.062-2.453c1.014,0.578,2.239,0.846,3.515,0.678c2.966-0.391,5.072-2.979,4.702-5.779
	c-0.22-1.67-1.273-3.033-2.714-3.783c0.505-0.614,0.767-1.416,0.657-2.253c-0.216-1.636-1.756-2.781-3.441-2.56
	c-0.695,0.093-1.297,0.41-1.759,0.856c-0.975-0.481-2.125-0.695-3.321-0.537c-1.908,0.252-3.462,1.378-4.246,2.869
	c-0.802-0.604-1.842-0.905-2.929-0.762c-2.166,0.285-3.695,2.229-3.417,4.339C87.978,8.243,88.98,9.379,90.285,9.863z"/>
<path fill="#C6C6C6" d="M109.726,7.839c-0.201,0.463-0.336,0.962-0.391,1.489c-0.293,2.873,1.911,5.453,4.921,5.76
	c1.645,0.17,3.187-0.379,4.301-1.377c0.811,0.758,1.885,1.277,3.104,1.4c2.834,0.289,5.352-1.643,5.625-4.318
	c0.164-1.592-0.512-3.086-1.682-4.098c0.604-0.458,1.023-1.142,1.104-1.941c0.16-1.563-1.014-2.961-2.623-3.126
	c-0.664-0.066-1.291,0.094-1.816,0.406c-0.797-0.661-1.814-1.111-2.957-1.229c-1.822-0.187-3.508,0.515-4.562,1.724
	c-0.609-0.735-1.506-1.244-2.544-1.35c-2.068-0.211-3.911,1.251-4.117,3.267C107.946,5.831,108.624,7.102,109.726,7.839z"/>
<path fill="#C6C6C6" d="M129.389,8.894c-0.084,0.472-0.098,0.96-0.035,1.456c0.359,2.711,2.953,4.605,5.793,4.23
	c1.553-0.205,2.854-1.047,3.66-2.209c0.912,0.521,2.016,0.762,3.166,0.611c2.672-0.354,4.568-2.684,4.236-5.208
	c-0.199-1.503-1.148-2.73-2.445-3.406c0.455-0.554,0.691-1.275,0.592-2.03c-0.193-1.474-1.582-2.506-3.102-2.305
	c-0.625,0.083-1.168,0.369-1.582,0.771c-0.879-0.435-1.914-0.626-2.994-0.484c-1.717,0.228-3.117,1.242-3.822,2.585
	c-0.723-0.544-1.66-0.815-2.639-0.686c-1.951,0.257-3.33,2.007-3.08,3.909C127.311,7.433,128.211,8.455,129.389,8.894z"/>
<path fill="#C6C6C6" d="M173.586,7.149c-0.067,0.379-0.08,0.771-0.027,1.172c0.289,2.18,2.375,3.703,4.66,3.402
	c1.248-0.164,2.295-0.842,2.944-1.777c0.734,0.42,1.622,0.613,2.547,0.492c2.149-0.283,3.675-2.16,3.407-4.188
	c-0.16-1.211-0.923-2.198-1.967-2.743c0.366-0.444,0.556-1.025,0.476-1.632c-0.157-1.186-1.273-2.016-2.494-1.855
	c-0.503,0.067-0.94,0.298-1.275,0.621c-0.707-0.35-1.54-0.504-2.407-0.389c-1.383,0.182-2.509,0.998-3.077,2.078
	c-0.581-0.437-1.335-0.655-2.123-0.551c-1.569,0.206-2.678,1.614-2.476,3.144C171.914,5.975,172.64,6.798,173.586,7.149z"/>
<path fill="#C6C6C6" d="M190.768,4.683c-0.133,0.307-0.223,0.637-0.259,0.985c-0.194,1.901,1.265,3.61,3.257,3.813
	c1.089,0.111,2.109-0.252,2.846-0.912c0.536,0.502,1.249,0.846,2.055,0.928c1.876,0.191,3.542-1.088,3.724-2.859
	c0.107-1.053-0.34-2.042-1.113-2.711c0.398-0.303,0.676-0.755,0.73-1.284c0.105-1.034-0.672-1.96-1.736-2.069
	c-0.439-0.044-0.854,0.063-1.203,0.269c-0.526-0.438-1.201-0.735-1.956-0.813c-1.206-0.124-2.322,0.341-3.02,1.141
	c-0.403-0.486-0.997-0.823-1.684-0.894c-1.369-0.14-2.588,0.828-2.725,2.162C189.589,3.355,190.038,4.196,190.768,4.683z"/>
<path fill="#C6C6C6" d="M209.087,6.257c-0.058,0.326-0.067,0.664-0.023,1.005c0.248,1.877,2.042,3.188,4.007,2.928
	c1.074-0.141,1.975-0.723,2.531-1.527c0.632,0.361,1.396,0.527,2.19,0.422c1.85-0.244,3.161-1.855,2.931-3.602
	c-0.138-1.039-0.794-1.889-1.691-2.355c0.314-0.384,0.479-0.883,0.409-1.405c-0.134-1.02-1.094-1.733-2.146-1.594
	c-0.432,0.057-0.807,0.255-1.094,0.532c-0.608-0.301-1.325-0.433-2.071-0.335c-1.188,0.157-2.156,0.86-2.645,1.788
	c-0.5-0.376-1.147-0.563-1.825-0.475c-1.35,0.179-2.304,1.389-2.131,2.705C207.649,5.247,208.273,5.954,209.087,6.257z"/>
<path fill="#C6C6C6" d="M254.293,3.704c-0.035,0.196-0.041,0.399-0.014,0.606c0.148,1.128,1.228,1.915,2.41,1.76
	c0.646-0.085,1.187-0.436,1.522-0.919c0.38,0.216,0.839,0.317,1.317,0.254c1.111-0.146,1.9-1.117,1.762-2.166
	c-0.082-0.627-0.477-1.137-1.018-1.419c0.189-0.229,0.288-0.53,0.247-0.844c-0.081-0.613-0.659-1.043-1.29-0.96
	c-0.26,0.035-0.486,0.154-0.659,0.321c-0.366-0.181-0.796-0.26-1.245-0.2c-0.715,0.094-1.298,0.516-1.591,1.074
	c-0.3-0.226-0.69-0.339-1.099-0.284c-0.811,0.106-1.385,0.835-1.279,1.626C253.428,3.097,253.804,3.522,254.293,3.704z"/>
<path fill="#C6C6C6" d="M269.944,2.027c-0.058,0.134-0.097,0.277-0.112,0.429c-0.084,0.825,0.549,1.565,1.414,1.653
	c0.473,0.05,0.915-0.108,1.234-0.395c0.232,0.218,0.542,0.366,0.892,0.401c0.813,0.084,1.538-0.472,1.616-1.239
	c0.047-0.458-0.148-0.887-0.484-1.177c0.174-0.132,0.295-0.328,0.318-0.559c0.045-0.448-0.291-0.85-0.754-0.897
	c-0.191-0.019-0.371,0.027-0.521,0.116c-0.229-0.189-0.521-0.319-0.85-0.352c-0.523-0.054-1.008,0.147-1.311,0.494
	c-0.175-0.211-0.432-0.357-0.73-0.388c-0.594-0.061-1.123,0.36-1.182,0.938C269.434,1.452,269.629,1.816,269.944,2.027z"/>
<path fill="#C6C6C6" d="M286.619,3.329c-0.029,0.169-0.035,0.344-0.012,0.521c0.129,0.972,1.057,1.649,2.074,1.515
	c0.555-0.073,1.021-0.374,1.309-0.79c0.328,0.187,0.723,0.272,1.135,0.219c0.957-0.127,1.637-0.961,1.516-1.865
	c-0.07-0.537-0.41-0.977-0.875-1.219c0.164-0.199,0.248-0.457,0.213-0.727c-0.07-0.528-0.566-0.897-1.111-0.826
	c-0.223,0.03-0.418,0.133-0.566,0.276c-0.314-0.156-0.686-0.225-1.072-0.174c-0.613,0.081-1.115,0.445-1.367,0.926
	c-0.26-0.194-0.594-0.292-0.945-0.245c-0.699,0.092-1.191,0.718-1.104,1.399C285.875,2.806,286.199,3.172,286.619,3.329z"/>
<path fill="#C6C6C6" d="M264.424,6.295c-0.014,0.08-0.016,0.163-0.006,0.247c0.062,0.46,0.502,0.781,0.983,0.718
	c0.264-0.034,0.484-0.178,0.621-0.375c0.155,0.089,0.342,0.13,0.537,0.104c0.454-0.06,0.775-0.455,0.719-0.883
	c-0.034-0.256-0.194-0.464-0.415-0.578c0.077-0.094,0.117-0.217,0.101-0.345c-0.033-0.25-0.269-0.425-0.526-0.392
	c-0.105,0.015-0.197,0.063-0.269,0.131c-0.149-0.073-0.325-0.105-0.507-0.081c-0.293,0.038-0.529,0.21-0.649,0.438
	c-0.122-0.092-0.282-0.138-0.448-0.115c-0.33,0.043-0.564,0.34-0.521,0.663C264.072,6.048,264.225,6.221,264.424,6.295z"/>
<path fill="#C6C6C6" d="M281.02,6.361c-0.018,0.101-0.021,0.203-0.008,0.309c0.076,0.574,0.625,0.975,1.227,0.896
	c0.328-0.044,0.604-0.222,0.773-0.468c0.193,0.11,0.428,0.161,0.672,0.13c0.564-0.075,0.967-0.568,0.896-1.104
	c-0.043-0.317-0.244-0.577-0.518-0.72c0.096-0.118,0.146-0.271,0.125-0.431c-0.041-0.312-0.334-0.53-0.656-0.488
	c-0.133,0.018-0.248,0.079-0.336,0.164c-0.186-0.093-0.404-0.133-0.633-0.104c-0.363,0.049-0.66,0.264-0.809,0.548
	c-0.154-0.115-0.352-0.173-0.561-0.146c-0.412,0.055-0.703,0.425-0.65,0.828C280.578,6.053,280.77,6.269,281.02,6.361z"/>
<path fill="#C6C6C6" d="M349.592,1.746c-0.027,0.064-0.047,0.135-0.055,0.208c-0.041,0.399,0.266,0.759,0.686,0.801
	c0.229,0.024,0.443-0.053,0.598-0.191c0.113,0.106,0.264,0.178,0.433,0.195c0.395,0.041,0.745-0.229,0.783-0.601
	c0.022-0.223-0.071-0.431-0.233-0.57c0.082-0.063,0.142-0.159,0.152-0.271c0.022-0.218-0.14-0.412-0.364-0.436
	c-0.093-0.009-0.181,0.013-0.253,0.057c-0.111-0.092-0.253-0.155-0.412-0.171c-0.254-0.026-0.488,0.071-0.635,0.239
	c-0.085-0.102-0.209-0.173-0.354-0.188c-0.289-0.029-0.545,0.175-0.574,0.455C349.344,1.468,349.438,1.645,349.592,1.746z"/>
<path fill="#C6C6C6" d="M359.881,0.987c-0.01,0.052-0.011,0.106-0.004,0.161c0.04,0.302,0.328,0.512,0.644,0.47
	c0.172-0.022,0.316-0.116,0.406-0.245c0.102,0.058,0.224,0.085,0.352,0.068c0.297-0.04,0.508-0.299,0.471-0.579
	c-0.021-0.167-0.128-0.303-0.271-0.378c0.051-0.062,0.076-0.142,0.065-0.226c-0.021-0.164-0.175-0.278-0.345-0.256
	c-0.069,0.009-0.129,0.041-0.175,0.085c-0.099-0.048-0.213-0.069-0.333-0.054c-0.19,0.025-0.346,0.139-0.425,0.287
	c-0.08-0.06-0.184-0.09-0.293-0.076c-0.217,0.029-0.37,0.223-0.342,0.435C359.65,0.824,359.75,0.938,359.881,0.987z"/>
<path fill="#C6C6C6" d="M342.676,0.937c-0.007,0.038-0.008,0.077-0.003,0.117c0.028,0.216,0.236,0.367,0.464,0.338
	c0.123-0.017,0.228-0.084,0.292-0.177c0.073,0.042,0.161,0.061,0.253,0.049c0.213-0.028,0.365-0.215,0.338-0.416
	c-0.016-0.12-0.092-0.219-0.195-0.272c0.037-0.044,0.056-0.102,0.048-0.162c-0.016-0.118-0.126-0.2-0.248-0.185
	c-0.05,0.007-0.093,0.03-0.126,0.062c-0.07-0.034-0.153-0.05-0.239-0.038c-0.138,0.018-0.249,0.099-0.306,0.206
	c-0.059-0.043-0.133-0.064-0.211-0.054c-0.156,0.02-0.266,0.159-0.246,0.312C342.51,0.82,342.582,0.902,342.676,0.937z"/>
<path fill="#C6C6C6" d="M356.253,3.506c-0.009,0.048-0.01,0.097-0.004,0.146c0.036,0.272,0.296,0.462,0.581,0.424
	c0.155-0.021,0.286-0.104,0.366-0.221c0.092,0.052,0.203,0.076,0.318,0.061c0.268-0.035,0.458-0.269,0.425-0.522
	c-0.021-0.15-0.115-0.273-0.245-0.341c0.045-0.056,0.069-0.128,0.06-0.204c-0.02-0.147-0.159-0.251-0.312-0.23
	c-0.063,0.008-0.117,0.037-0.159,0.077c-0.088-0.044-0.191-0.063-0.299-0.049c-0.173,0.023-0.313,0.125-0.384,0.26
	c-0.073-0.055-0.167-0.082-0.266-0.069c-0.194,0.026-0.333,0.201-0.308,0.393C356.044,3.36,356.135,3.462,356.253,3.506z"/>
</svg>
