<?xml version="1.0" encoding="utf-8"?>
<!-- Generator: Adobe Illustrator 16.0.2, SVG Export Plug-In . SVG Version: 6.00 Build 0)  -->
<!DOCTYPE svg PUBLIC "-//W3C//DTD SVG 1.1//EN" "http://www.w3.org/Graphics/SVG/1.1/DTD/svg11.dtd">
<svg version="1.1" id="Layer_1" xmlns="http://www.w3.org/2000/svg" xmlns:xlink="http://www.w3.org/1999/xlink" x="0px" y="0px"
	 width="250px" height="21px" viewBox="0 0 250 21" enable-background="new 0 0 250 21" xml:space="preserve">
<path fill="#C6C6C6" d="M3.815,12.629c-0.114,0.636-0.135,1.297-0.047,1.968c0.484,3.663,3.989,6.224,7.828,5.718
	c2.097-0.276,3.855-1.415,4.944-2.985c1.234,0.704,2.727,1.03,4.28,0.825c3.611-0.477,6.175-3.628,5.724-7.036
	c-0.268-2.032-1.549-3.692-3.304-4.604c0.615-0.748,0.934-1.724,0.799-2.744c-0.263-1.991-2.137-3.386-4.188-3.115
	c-0.846,0.112-1.578,0.5-2.142,1.042c-1.188-0.587-2.587-0.848-4.043-0.656C11.344,1.349,9.453,2.72,8.499,4.536
	C7.522,3.8,6.256,3.433,4.934,3.608c-2.638,0.347-4.5,2.713-4.161,5.282C1.006,10.656,2.226,12.037,3.815,12.629z"/>
<path fill="#C6C6C6" d="M26.577,10.346c-0.259,0.598-0.433,1.243-0.504,1.921c-0.379,3.708,2.466,7.038,6.35,7.435
	c2.123,0.218,4.113-0.489,5.548-1.777c1.048,0.979,2.435,1.646,4.009,1.808c3.654,0.373,6.903-2.121,7.257-5.572
	c0.212-2.056-0.661-3.984-2.17-5.289c0.778-0.59,1.319-1.474,1.425-2.505c0.206-2.015-1.31-3.821-3.386-4.033
	c-0.856-0.086-1.665,0.121-2.346,0.523c-1.026-0.853-2.339-1.435-3.813-1.586c-2.351-0.24-4.527,0.666-5.887,2.224
	c-0.787-0.949-1.943-1.604-3.284-1.741c-2.668-0.272-5.046,1.614-5.313,4.216C24.281,7.755,25.156,9.395,26.577,10.346z"/>
<path fill="#C6C6C6" d="M58.55,10.419c-0.089,0.498-0.105,1.018-0.036,1.543c0.379,2.869,3.125,4.875,6.132,4.479
	c1.644-0.219,3.021-1.107,3.875-2.338c0.967,0.549,2.136,0.807,3.353,0.645c2.83-0.373,4.838-2.842,4.484-5.512
	c-0.209-1.593-1.213-2.893-2.588-3.608c0.481-0.585,0.731-1.351,0.626-2.149c-0.206-1.56-1.675-2.652-3.282-2.442
	c-0.663,0.089-1.237,0.392-1.678,0.816c-0.93-0.458-2.027-0.663-3.168-0.512c-1.819,0.24-3.302,1.314-4.05,2.736
	c-0.765-0.576-1.756-0.863-2.793-0.727c-2.066,0.271-3.525,2.126-3.259,4.138C56.35,8.874,57.306,9.957,58.55,10.419z"/>
<path fill="#C6C6C6" d="M77.093,8.488c-0.191,0.441-0.32,0.917-0.373,1.42c-0.279,2.742,1.822,5.203,4.693,5.494
	c1.568,0.162,3.04-0.361,4.102-1.313c0.774,0.723,1.798,1.219,2.961,1.336c2.703,0.275,5.105-1.568,5.365-4.119
	c0.157-1.519-0.488-2.944-1.604-3.91c0.576-0.437,0.976-1.089,1.054-1.851c0.152-1.491-0.968-2.824-2.502-2.981
	c-0.634-0.063-1.231,0.09-1.731,0.387c-0.761-0.63-1.73-1.06-2.82-1.172c-1.738-0.179-3.346,0.491-4.353,1.644
	c-0.581-0.701-1.436-1.187-2.426-1.288c-1.972-0.202-3.73,1.193-3.927,3.116C75.395,6.573,76.042,7.786,77.093,8.488z"/>
<path fill="#C6C6C6" d="M112.233,7.212c-0.062,0.35-0.074,0.711-0.025,1.08c0.267,2.012,2.19,3.415,4.297,3.137
	c1.15-0.15,2.116-0.776,2.714-1.639c0.677,0.389,1.496,0.566,2.348,0.455c1.981-0.262,3.389-1.992,3.142-3.862
	c-0.148-1.117-0.852-2.027-1.814-2.529c0.338-0.409,0.513-0.945,0.439-1.504c-0.145-1.094-1.173-1.859-2.299-1.71
	c-0.464,0.062-0.867,0.274-1.176,0.573c-0.652-0.323-1.42-0.465-2.219-0.359c-1.275,0.168-2.313,0.92-2.837,1.916
	c-0.536-0.403-1.231-0.604-1.958-0.508c-1.447,0.19-2.469,1.488-2.283,2.899C110.692,6.13,111.361,6.889,112.233,7.212z"/>
<path fill="#C6C6C6" d="M127.559,5.684c-0.133,0.307-0.223,0.637-0.258,0.985c-0.195,1.901,1.264,3.61,3.256,3.813
	c1.09,0.111,2.109-0.252,2.846-0.912c0.537,0.502,1.25,0.846,2.057,0.928c1.875,0.191,3.541-1.088,3.723-2.857
	c0.107-1.054-0.34-2.043-1.113-2.712c0.398-0.303,0.678-0.755,0.73-1.284c0.105-1.034-0.672-1.96-1.736-2.069
	c-0.438-0.044-0.854,0.063-1.203,0.269c-0.525-0.438-1.199-0.735-1.955-0.813c-1.205-0.124-2.322,0.341-3.02,1.141
	c-0.404-0.486-0.998-0.823-1.684-0.894c-1.369-0.14-2.59,0.828-2.727,2.162C126.381,4.356,126.83,5.197,127.559,5.684z"/>
<path fill="#C6C6C6" d="M167.666,4.066c-0.033,0.189-0.039,0.384-0.014,0.583c0.145,1.086,1.184,1.844,2.322,1.695
	c0.621-0.081,1.143-0.419,1.467-0.885c0.365,0.21,0.808,0.306,1.269,0.246c1.07-0.141,1.831-1.076,1.698-2.086
	c-0.08-0.604-0.461-1.095-0.98-1.367c0.182-0.221,0.276-0.51,0.236-0.813c-0.078-0.591-0.634-1.004-1.242-0.924
	c-0.25,0.033-0.469,0.148-0.635,0.31c-0.353-0.174-0.768-0.251-1.199-0.194c-0.689,0.09-1.25,0.497-1.533,1.035
	c-0.289-0.217-0.664-0.326-1.057-0.274c-0.783,0.103-1.334,0.804-1.234,1.566C166.834,3.481,167.195,3.891,167.666,4.066z"/>
<path fill="#C6C6C6" d="M177.631,3.151c-0.064,0.148-0.108,0.308-0.126,0.476c-0.093,0.917,0.61,1.743,1.572,1.841
	c0.526,0.054,1.019-0.122,1.374-0.44c0.26,0.243,0.604,0.408,0.992,0.448c0.906,0.093,1.711-0.525,1.798-1.38
	c0.053-0.509-0.163-0.986-0.537-1.309c0.192-0.146,0.327-0.365,0.353-0.62c0.051-0.5-0.324-0.946-0.838-0.999
	c-0.212-0.022-0.412,0.03-0.581,0.129c-0.254-0.211-0.579-0.355-0.944-0.393c-0.582-0.06-1.12,0.165-1.458,0.551
	c-0.194-0.235-0.481-0.397-0.813-0.432c-0.661-0.067-1.25,0.4-1.316,1.044C177.061,2.51,177.278,2.916,177.631,3.151z"/>
<path fill="#C6C6C6" d="M174.588,7.474c-0.016,0.088-0.019,0.177-0.006,0.269c0.065,0.499,0.543,0.847,1.066,0.778
	c0.285-0.037,0.524-0.192,0.674-0.406c0.167,0.096,0.371,0.141,0.582,0.112c0.492-0.064,0.842-0.494,0.78-0.958
	c-0.036-0.277-0.212-0.504-0.45-0.628c0.083-0.102,0.127-0.234,0.108-0.374c-0.036-0.271-0.291-0.461-0.571-0.424
	c-0.114,0.016-0.215,0.068-0.291,0.143c-0.162-0.08-0.353-0.115-0.551-0.09c-0.316,0.042-0.574,0.229-0.705,0.476
	c-0.133-0.1-0.305-0.149-0.484-0.126c-0.359,0.047-0.613,0.369-0.567,0.719C174.205,7.207,174.371,7.394,174.588,7.474z"/>
<path fill="#C6C6C6" d="M220.753,1.105c-0.01,0.057-0.012,0.114-0.004,0.174c0.043,0.322,0.352,0.547,0.689,0.503
	c0.186-0.024,0.34-0.125,0.436-0.263c0.109,0.063,0.24,0.091,0.377,0.073c0.318-0.042,0.543-0.319,0.504-0.62
	c-0.023-0.179-0.137-0.325-0.291-0.405c0.055-0.066,0.082-0.152,0.07-0.242c-0.023-0.175-0.188-0.298-0.369-0.274
	c-0.074,0.01-0.139,0.044-0.188,0.092c-0.105-0.052-0.229-0.075-0.357-0.058c-0.204,0.027-0.37,0.147-0.455,0.307
	c-0.086-0.064-0.197-0.097-0.313-0.082c-0.232,0.03-0.396,0.239-0.366,0.465C220.507,0.932,220.614,1.054,220.753,1.105z"/>
<path fill="#C6C6C6" d="M226.62,1.404c-0.014,0.072-0.016,0.146-0.006,0.223c0.055,0.413,0.451,0.702,0.885,0.646
	c0.236-0.031,0.435-0.16,0.559-0.338c0.139,0.08,0.307,0.117,0.482,0.094c0.408-0.054,0.697-0.41,0.646-0.794
	c-0.03-0.229-0.176-0.417-0.373-0.52c0.069-0.084,0.105-0.194,0.09-0.31c-0.029-0.225-0.241-0.383-0.473-0.352
	c-0.096,0.013-0.179,0.057-0.242,0.118c-0.134-0.066-0.292-0.096-0.457-0.074c-0.262,0.034-0.475,0.189-0.583,0.394
	c-0.11-0.083-0.253-0.124-0.403-0.104c-0.297,0.039-0.508,0.307-0.469,0.597C226.303,1.182,226.44,1.338,226.62,1.404z"/>
<path fill="#C6C6C6" d="M224.151,3.554c-0.005,0.026-0.006,0.054-0.002,0.082c0.021,0.154,0.168,0.262,0.329,0.24
	c0.089-0.012,0.162-0.059,0.208-0.125c0.052,0.029,0.114,0.043,0.18,0.035c0.152-0.021,0.26-0.153,0.241-0.297
	c-0.011-0.086-0.065-0.155-0.14-0.193c0.026-0.031,0.04-0.072,0.034-0.115c-0.011-0.084-0.09-0.143-0.177-0.131
	c-0.035,0.004-0.066,0.021-0.09,0.043c-0.05-0.023-0.108-0.035-0.17-0.027c-0.098,0.014-0.178,0.07-0.217,0.146
	c-0.041-0.03-0.095-0.045-0.15-0.039c-0.111,0.016-0.189,0.115-0.176,0.223C224.033,3.47,224.085,3.529,224.151,3.554z"/>
</svg>
